HIERARCHY
ROOT Hips
{
	OFFSET -0.001795 -0.223333 0.028219
	CHANNELS 6 Xposition Yposition Zposition Zrotation Yrotation Xrotation 
	JOINT LeftUpLeg
	{
		OFFSET 0.069520 -0.091406 -0.006815
		CHANNELS 3 Zrotation Yrotation Xrotation
		JOINT LeftLeg
		{
			OFFSET 0.034277 -0.375199 -0.004496
			CHANNELS 3 Zrotation Yrotation Xrotation
			JOINT LeftFoot
			{
				OFFSET -0.013596 -0.397961 -0.043693
				CHANNELS 3 Zrotation Yrotation Xrotation
				JOINT LeftToe
				{
					OFFSET 0.026358 -0.055791 0.119288
					CHANNELS 3 Zrotation Yrotation Xrotation
					End Site
					{
						OFFSET 0.000000 0.000000 0.000000
					}
				}
			}
		}
	}
	JOINT RightUpLeg
	{
		OFFSET -0.067670 -0.090522 -0.004320
		CHANNELS 3 Zrotation Yrotation Xrotation
		JOINT RightLeg
		{
			OFFSET -0.038290 -0.382569 -0.008850
			CHANNELS 3 Zrotation Yrotation Xrotation
			JOINT RightFoot
			{
				OFFSET 0.015774 -0.398415 -0.042312
				CHANNELS 3 Zrotation Yrotation Xrotation
				JOINT RightToe
				{
					OFFSET -0.025372 -0.048144 0.123348
					CHANNELS 3 Zrotation Yrotation Xrotation
					End Site
					{
						OFFSET 0.000000 0.000000 0.000000
					}
				}
			}
		}
	}
	JOINT Spine
	{
		OFFSET -0.002533 0.108963 -0.026696
		CHANNELS 3 Zrotation Yrotation Xrotation
		JOINT Spine1
		{
			OFFSET 0.005487 0.135180 0.001092
			CHANNELS 3 Zrotation Yrotation Xrotation
			JOINT Spine2
			{
				OFFSET 0.001457 0.052922 0.025425
				CHANNELS 3 Zrotation Yrotation Xrotation
				JOINT Neck
				{
					OFFSET -0.002778 0.213870 -0.042857
					CHANNELS 3 Zrotation Yrotation Xrotation
					JOINT Head
					{
						OFFSET 0.005152 0.064970 0.051349
						CHANNELS 3 Zrotation Yrotation Xrotation
						End Site
						{
							OFFSET 0.000000 0.000000 0.000000
						}
					}
				}
				JOINT LeftShoulder
				{
					OFFSET 0.078845 0.121749 -0.034090
					CHANNELS 3 Zrotation Yrotation Xrotation
					JOINT LeftArm
					{
						OFFSET 0.090977 0.030469 -0.008868
						CHANNELS 3 Zrotation Yrotation Xrotation
						JOINT LeftForeArm
						{
							OFFSET 0.259612 -0.012772 -0.027456
							CHANNELS 3 Zrotation Yrotation Xrotation
							JOINT LeftHand
							{
								OFFSET 0.249234 0.008986 -0.001171
								CHANNELS 3 Zrotation Yrotation Xrotation
								End Site
								{
									OFFSET 0.000000 0.000000 0.000000
								}
							}
						}
					}
				}
				JOINT RightShoulder
				{
					OFFSET -0.081759 0.118833 -0.038615
					CHANNELS 3 Zrotation Yrotation Xrotation
					JOINT RightArm
					{
						OFFSET -0.096012 0.032551 -0.009143
						CHANNELS 3 Zrotation Yrotation Xrotation
						JOINT RightForeArm
						{
							OFFSET -0.253742 -0.013329 -0.021401
							CHANNELS 3 Zrotation Yrotation Xrotation
							JOINT RightHand
							{
								OFFSET -0.255298 0.007772 -0.005559
								CHANNELS 3 Zrotation Yrotation Xrotation
								End Site
								{
									OFFSET 0.000000 0.000000 0.000000
								}
							}
						}
					}
				}
			}
		}
	}
}
MOTION
Frames: 5
Frame Time: 0.050000
0.000000 0.764047 0.000000 -2.005471 -4.721962 32.996972 4.885159 -1.071463 -80.400529 -6.573529 3.366922 64.824949 8.533691 18.362464 2.999453 0.000000 0.000000 0.000000 -14.342039 1.007209 -80.196812 14.837912 -8.875259 65.689100 -5.248880 -14.323019 -0.806523 0.000000 0.000000 0.000000 2.238456 -2.744623 63.052965 -2.995614 1.146154 -32.929550 -1.458458 4.870293 31.994060 13.751512 -3.869704 -33.310794 0.000000 0.000000 0.000000 -12.724125 5.433126 -4.393984 -59.371931 1.335709 -10.051243 1.886728 -50.350069 1.913763 0.000000 0.000000 0.000000 16.198795 -11.459424 -6.957448 64.815654 -2.165368 -9.482982 3.570182 60.795825 7.092246 0.000000 0.000000 0.000000 
-0.001009 0.760812 -0.000822 -2.467277 -5.907742 34.760392 4.413349 -0.589587 -82.175036 -5.487586 2.561914 65.114263 8.846603 18.850394 2.185219 0.000000 0.000000 0.000000 -14.285489 1.895361 -83.511175 15.143593 -9.277412 67.267325 -6.103522 -16.824106 0.784909 0.000000 0.000000 0.000000 1.485357 -1.677577 64.242639 -3.026907 1.145628 -36.826841 -0.911217 5.612212 34.105178 14.754926 -3.562862 -36.933079 0.000000 0.000000 0.000000 -13.904386 2.251008 -2.904687 -57.378420 2.806806 -10.423997 3.266089 -60.428442 1.251893 0.000000 0.000000 0.000000 18.460663 -14.281735 -9.014411 63.519009 -4.283449 -10.447263 5.250822 66.992727 9.302613 0.000000 0.000000 0.000000 
-0.001904 0.758345 -0.000500 -0.598638 -5.975656 33.109430 4.186475 -1.033475 -79.931837 -7.507763 4.332719 65.187177 8.394944 17.680829 -2.813031 0.000000 0.000000 0.000000 -14.667134 1.373052 -81.527990 13.778456 -8.249131 68.727839 -5.826320 -15.410170 -3.711067 0.000000 0.000000 0.000000 2.179246 -2.225759 64.571539 -3.828602 1.231642 -35.228812 -1.524025 4.101013 33.091703 13.944220 -4.115531 -33.416616 0.000000 0.000000 0.000000 -14.218985 1.422724 -2.069487 -58.260959 4.145594 -11.173030 5.190734 -63.027361 0.523276 0.000000 0.000000 0.000000 18.613667 -14.140925 -9.316621 62.149816 -3.173465 -9.779374 12.110033 66.365279 13.227081 0.000000 0.000000 0.000000 
-0.002593 0.759452 0.000293 -0.842988 -6.640828 32.889555 3.644128 -1.084875 -79.759327 -6.229351 3.500898 67.304391 7.323321 14.987236 -5.215760 0.000000 0.000000 0.000000 -14.016304 2.263561 -82.350601 13.678215 -8.139883 69.532256 -6.642165 -17.976884 -0.702475 0.000000 0.000000 0.000000 2.294081 -2.053984 64.809535 -4.954765 1.325774 -35.925778 -1.874352 2.723170 32.980410 14.665091 -4.104084 -36.079489 0.000000 0.000000 0.000000 -16.541508 1.785264 -2.083462 -57.770717 3.710026 -10.879797 8.624007 -65.926114 -1.070588 0.000000 0.000000 0.000000 19.501413 -14.183250 -9.997088 61.018854 -4.245194 -10.177370 12.595680 68.983916 13.523621 0.000000 0.000000 0.000000 
-0.003346 0.758015 0.001739 -0.412531 -6.554240 32.337684 3.430141 -1.376516 -78.843714 -6.917781 4.137455 67.875345 7.932501 16.109856 -7.959936 0.000000 0.000000 0.000000 -14.168022 2.001793 -80.903412 13.328242 -7.747955 69.008864 -6.248162 -16.637507 -3.687627 0.000000 0.000000 0.000000 3.018895 -2.644372 63.651441 -5.548042 1.385751 -35.552265 -2.592904 2.042667 32.894796 14.725116 -4.628142 -34.237001 0.000000 0.000000 0.000000 -17.341263 0.864697 -1.332717 -58.602575 2.815127 -10.669135 11.960267 -70.571335 -3.008511 0.000000 0.000000 0.000000 20.478898 -14.964002 -10.995877 60.266359 -4.403587 -10.164603 21.508581 68.272055 19.153659 0.000000 0.000000 0.000000 
